<svg width="50" height="50" viewBox="0 0 50 50" fill="none" xmlns="http://www.w3.org/2000/svg">
<circle cx="25" cy="25" r="25" fill="white"/>
<path d="M32.6264 26.2175C32.6143 24.1528 33.5497 22.5968 35.4388 21.4494C34.3822 19.9357 32.7838 19.1032 30.6768 18.9428C28.6817 18.7854 26.499 20.1053 25.6998 20.1053C24.8552 20.1053 22.9237 18.9973 21.404 18.9973C18.2677 19.0457 14.9346 21.4979 14.9346 26.4869C14.9346 27.9612 15.204 29.484 15.7429 31.0522C16.4634 33.1168 19.0608 38.1755 21.7703 38.0938C23.1871 38.0605 24.1892 37.0887 26.0328 37.0887C27.822 37.0887 28.7483 38.0938 30.3286 38.0938C33.0623 38.0544 35.4115 33.4559 36.0957 31.3852C32.4296 29.6565 32.6264 26.3234 32.6264 26.2175V26.2175ZM29.4446 16.9841C30.9795 15.1616 30.8402 13.5026 30.7948 12.9062C29.4386 12.985 27.8704 13.8296 26.9773 14.868C25.9935 15.982 25.4152 17.3595 25.5394 18.9125C27.0046 19.0245 28.3427 18.2707 29.4446 16.9841V16.9841Z" fill="black"/>
</svg>
