<svg width="220" height="66" viewBox="0 0 220 66" fill="none" xmlns="http://www.w3.org/2000/svg">
<g clip-path="url(#clip0_87_26)">
<path d="M202.512 0H18.4011C17.7294 0 17.0664 0 16.3972 0.00352C15.8372 0.00704 15.2806 0.01672 14.7154 0.02464C13.4862 0.03784 12.2605 0.13464 11.0486 0.31592C9.83676 0.50072 8.66472 0.85008 7.56885 1.3508C6.49147 1.84502 5.49301 2.50056 4.60673 3.2956C3.74752 4.05986 3.01915 4.96389 2.45135 5.9708C1.89978 6.94472 1.51268 8.00574 1.30615 9.10976C1.10258 10.1992 0.99281 11.3045 0.978078 12.4133C0.960766 12.9193 0.959035 13.4262 0.950378 13.9322V52.0714C0.959035 52.5835 0.960766 53.0798 0.978078 53.592C0.992793 54.699 1.10273 55.8034 1.30615 56.8955C1.51148 58.0004 1.89802 59.0624 2.44962 60.0371C3.01754 61.0408 3.7463 61.9411 4.60586 62.7009C5.47147 63.4885 6.47212 64.1441 7.56885 64.6457C8.66385 65.1473 9.83676 65.4993 11.0477 65.6867C12.2596 65.8662 13.4862 65.9639 14.7145 65.978C15.2806 65.9894 15.8363 65.9956 16.3964 65.9956C17.0655 65.9991 17.7294 65.9991 18.4003 65.9991H202.511C203.169 65.9991 203.837 65.9991 204.495 65.9956C205.052 65.9956 205.624 65.9894 206.182 65.978C207.407 65.9644 208.63 65.8671 209.842 65.6867C211.047 65.5005 212.221 65.1503 213.334 64.6457C214.413 64.1552 215.411 63.4993 216.294 62.7009C217.151 61.9373 217.882 61.0378 218.456 60.0371C219.004 59.0616 219.387 57.9997 219.589 56.8955C219.793 55.806 219.907 54.7009 219.929 53.592C219.937 53.0798 219.937 52.5835 219.937 52.0714C219.95 51.4712 219.95 50.8754 219.95 50.2665V15.7344C219.95 15.1298 219.95 14.5306 219.937 13.9322C219.937 13.4262 219.937 12.9193 219.929 12.4133C219.907 11.3044 219.793 10.1993 219.589 9.10976C219.386 8.00598 219.004 6.94445 218.456 5.96904C217.327 3.98464 215.535 2.36896 213.334 1.34904C212.222 0.846797 211.047 0.499582 209.843 0.3168C208.631 0.134901 207.408 0.0375805 206.183 0.02552C205.624 0.01672 205.053 0.00792 204.496 0.0044C203.838 0 203.17 0 202.512 0Z" fill="#A6A6A6"/>
<path d="M16.406 64.5568C15.8485 64.5568 15.3049 64.5498 14.7518 64.5392C13.6069 64.5258 12.4642 64.4358 11.3309 64.2699C10.2847 64.1086 9.26471 63.8043 8.29865 63.3653C7.36664 62.943 6.50419 62.3773 5.74163 61.688C4.99634 61.0322 4.36513 60.2533 3.87451 59.3842C3.39454 58.5357 3.05859 57.6111 2.88079 56.6491C2.69277 55.6288 2.59083 54.5939 2.57609 53.5559C2.56397 53.2075 2.54926 52.0494 2.54926 52.0494V13.9331C2.54926 13.9331 2.56484 12.7926 2.57522 12.4573C2.58994 11.4224 2.69122 10.3893 2.87819 9.36849C3.05662 8.40397 3.39312 7.47675 3.87364 6.62553C4.36245 5.75735 4.99026 4.97812 5.73125 4.31993C6.48433 3.63969 7.34994 3.07033 8.29779 2.63209C9.2615 2.19473 10.2793 1.89276 11.3231 1.73449C12.4603 1.56713 13.6072 1.47688 14.7561 1.46433L16.4068 1.44409H204.486L206.158 1.46433C207.297 1.47665 208.434 1.56641 209.559 1.73273C210.613 1.89318 211.642 2.19747 212.616 2.63737C214.516 3.51913 216.061 4.91569 217.036 6.62993C217.509 7.47536 217.84 8.39492 218.016 9.35089C218.205 10.3805 218.312 11.4207 218.333 12.4643C218.34 12.9316 218.34 13.4332 218.34 13.9339C218.353 14.5517 218.353 15.1413 218.353 15.7344V50.2665C218.353 50.8666 218.353 51.451 218.34 52.0415C218.34 52.5783 218.339 53.0693 218.332 53.5753C218.311 54.6016 218.206 55.6245 218.019 56.6333C217.845 57.6019 217.511 58.5335 217.031 59.3886C216.537 60.2479 215.909 61.0201 215.172 61.6748C214.409 62.3681 213.545 62.9374 212.611 63.3627C211.639 63.8045 210.612 64.1095 209.559 64.2691C208.427 64.4362 207.284 64.526 206.138 64.5383C205.602 64.5498 205.04 64.5559 204.495 64.5559L202.512 64.5595L16.406 64.5559V64.5568Z" fill="black"/>
<path d="M53.6005 33.4964C53.6182 32.1187 53.9791 30.768 54.6497 29.5707C55.3209 28.372 56.2794 27.3655 57.4361 26.6447C56.7001 25.5797 55.73 24.7038 54.6029 24.0865C53.4747 23.4684 52.2206 23.1256 50.9396 23.0851C48.2069 22.7947 45.5573 24.743 44.1645 24.743C42.7449 24.743 40.6008 23.1141 38.2913 23.1616C36.7984 23.2107 35.3433 23.6512 34.0671 24.4403C32.7918 25.2281 31.7391 26.3383 31.0115 27.6628C27.8633 33.1875 30.2117 41.3072 33.2275 45.7732C34.7354 47.96 36.4986 50.4029 38.8055 50.3167C41.063 50.2216 41.9061 48.8568 44.6311 48.8568C47.3318 48.8568 48.1221 50.3167 50.4757 50.2612C52.8985 50.2216 54.4246 48.0648 55.8806 45.8568C56.9641 44.2994 57.7982 42.5773 58.3519 40.7546C56.9453 40.1521 55.7441 39.1421 54.8981 37.8506C54.0533 36.5606 53.6017 35.046 53.5997 33.4964H53.6005ZM49.1539 20.1476C50.4741 18.542 51.1252 16.4756 50.9682 14.3889C48.9517 14.6029 47.0882 15.5802 45.7477 17.1266C45.0939 17.8813 44.593 18.7596 44.2736 19.7114C43.9543 20.6632 43.8228 21.6697 43.8866 22.6732C44.8951 22.6832 45.8927 22.4612 46.8048 22.0238C47.717 21.5865 48.52 20.9451 49.1539 20.1476ZM82.1372 44.7806H74.4332L72.5834 50.3184H69.3201L76.6172 29.8294H80.0078L87.3049 50.3184H83.9861L82.1372 44.7806ZM75.2313 42.2251H81.3382L78.3276 33.2368H78.2437L75.2313 42.2251ZM103.064 42.8508C103.064 47.4928 100.614 50.4751 96.9149 50.4751C95.9783 50.5249 95.0467 50.3063 94.2263 49.8441C93.4069 49.3823 92.7319 48.6952 92.2787 47.8615H92.2086V55.2605H89.1841V35.3804H92.1116V37.8647H92.167C92.6425 37.0354 93.3295 36.3522 94.1555 35.8873C94.9816 35.4224 95.9158 35.1932 96.8595 35.2238C100.599 35.2238 103.064 38.2211 103.064 42.8499V42.8508ZM99.9558 42.8508C99.9558 39.8262 98.4133 37.8374 96.0614 37.8374C93.7502 37.8374 92.1956 39.8676 92.1956 42.8508C92.1956 45.8604 93.7502 47.8755 96.0614 47.8755C98.4142 47.8755 99.9558 45.9017 99.9558 42.8508ZM119.283 42.8499C119.283 47.4928 116.832 50.4751 113.133 50.4751C112.196 50.5249 111.265 50.3063 110.444 49.8441C109.625 49.3822 108.95 48.6951 108.497 47.8615H108.427V55.2605H105.402V35.3804H108.33V37.8647H108.386C108.86 37.0353 109.546 36.3519 110.372 35.8873C111.198 35.4222 112.133 35.1929 113.078 35.2238C116.818 35.2238 119.283 38.2211 119.283 42.8499ZM116.174 42.8499C116.174 39.8262 114.632 37.8374 112.28 37.8374C109.968 37.8374 108.415 39.8676 108.415 42.8499C108.415 45.8595 109.968 47.8764 112.28 47.8764C114.632 47.8764 116.174 45.9017 116.174 42.8499ZM130.002 44.6099C130.226 46.6418 132.173 47.9759 134.834 47.9759C137.383 47.9759 139.217 46.6418 139.217 44.8096C139.217 43.2195 138.111 42.2664 135.492 41.6144L132.872 40.9746C129.161 40.0656 127.438 38.3064 127.438 35.4508C127.438 31.9159 130.477 29.4871 134.792 29.4871C139.063 29.4871 141.991 31.9159 142.09 35.4508H139.036C138.853 33.4057 137.186 32.1719 134.749 32.1719C132.313 32.1719 130.645 33.4207 130.645 35.2379C130.645 36.6872 131.711 37.5391 134.315 38.192L136.543 38.7464C140.689 39.7408 142.412 41.4287 142.412 44.426C142.412 48.2592 139.4 50.6599 134.61 50.6599C130.128 50.6599 127.101 48.3156 126.906 44.6099H130.002ZM148.94 31.8446V35.3795H151.742V37.8084H148.94V46.0434C148.94 47.3229 149.501 47.9195 150.733 47.9195C151.065 47.9135 151.397 47.8898 151.727 47.8483V50.2621C151.173 50.3677 150.611 50.4144 150.047 50.4038C147.064 50.4038 145.901 49.2686 145.901 46.3708V37.8084H143.758V35.3795H145.901V31.8446H148.94ZM153.365 42.8499C153.365 38.1498 156.096 35.1965 160.354 35.1965C164.627 35.1965 167.345 38.1498 167.345 42.8499C167.345 47.5632 164.64 50.5041 160.354 50.5041C156.068 50.5041 153.365 47.5632 153.365 42.8499ZM164.262 42.8499C164.262 39.6256 162.804 37.723 160.354 37.723C157.903 37.723 156.447 39.6405 156.447 42.8499C156.447 46.0874 157.903 47.9759 160.354 47.9759C162.804 47.9759 164.262 46.0874 164.262 42.8499ZM169.838 35.3804H172.723V37.9228H172.793C172.988 37.128 173.447 36.426 174.092 35.9348C174.738 35.4433 175.531 35.1923 176.337 35.2238C176.686 35.2222 177.034 35.2606 177.374 35.3382V38.207C176.934 38.0705 176.475 38.0078 176.015 38.0213C175.575 38.0034 175.138 38.0819 174.731 38.2516C174.324 38.4212 173.959 38.6779 173.658 39.0043C173.359 39.3306 173.134 39.7189 172.996 40.1424C172.859 40.5659 172.813 41.0146 172.863 41.4577V50.3193H169.838V35.3795V35.3804ZM191.32 45.9308C190.912 48.6429 188.307 50.5041 184.974 50.5041C180.687 50.5041 178.026 47.5913 178.026 42.9212C178.026 38.2351 180.702 35.1965 184.847 35.1965C188.923 35.1965 191.487 38.0354 191.487 42.5648V43.6155H181.08V43.8003C181.032 44.3503 181.099 44.9046 181.279 45.4259C181.458 45.9473 181.745 46.4236 182.12 46.8231C182.495 47.2237 182.95 47.5387 183.454 47.7471C183.958 47.9556 184.5 48.0528 185.044 48.0322C185.758 48.101 186.475 47.9337 187.088 47.5551C187.702 47.1765 188.178 46.6068 188.447 45.9308H191.32ZM181.094 41.4727H188.461C188.488 40.9781 188.414 40.4831 188.244 40.0191C188.073 39.555 187.81 39.1319 187.471 38.7764C187.132 38.4196 186.723 38.1382 186.272 37.9496C185.82 37.7611 185.335 37.6695 184.847 37.6808C184.106 37.6764 183.381 37.8962 182.763 38.3122C182.145 38.7283 181.663 39.3218 181.378 40.0172C181.189 40.4784 181.093 40.9732 181.094 41.4727ZM74.8522 14.4056C75.486 14.3597 76.1219 14.457 76.7144 14.6904C77.3069 14.9237 77.8412 15.2875 78.2791 15.7556C78.7159 16.2231 79.045 16.7836 79.2426 17.3963C79.4402 18.009 79.5014 18.6587 79.4218 19.2984C79.4218 22.4436 77.7451 24.2511 74.8513 24.2511H71.3439V14.4065H74.8522V14.4056ZM72.8526 22.8589H74.6834C75.1362 22.8862 75.5894 22.8108 76.01 22.6382C76.4307 22.4656 76.8084 22.2001 77.1158 21.861C77.4223 21.5221 77.6505 21.1179 77.7838 20.6779C77.9171 20.238 77.9521 19.7733 77.8862 19.3178C77.9476 18.8642 77.9093 18.4024 77.774 17.9656C77.6387 17.5289 77.4097 17.1281 77.1036 16.7922C76.7973 16.4553 76.4214 16.1914 76.003 16.0195C75.5846 15.8476 75.134 15.7719 74.6834 15.7978H72.8526V22.8589ZM81.1253 20.5331C81.0792 20.0446 81.1343 19.5517 81.2872 19.0862C81.44 18.6208 81.6871 18.193 82.0125 17.8306C82.3382 17.4671 82.7349 17.1768 83.1773 16.9783C83.6197 16.7797 84.0981 16.6774 84.5817 16.6778C85.0652 16.6779 85.5434 16.7805 85.9857 16.979C86.4281 17.1775 86.8249 17.4675 87.1508 17.8306C87.4761 18.1929 87.7232 18.6205 87.876 19.0858C88.0288 19.5511 88.084 20.0439 88.0381 20.5322C88.085 21.0213 88.0305 21.515 87.8782 21.9814C87.7258 22.4478 87.4789 22.8766 87.1534 23.24C86.8277 23.6039 86.4307 23.8946 85.988 24.0934C85.5453 24.2923 85.0665 24.3948 84.5825 24.3945C84.0983 24.3945 83.6194 24.2918 83.1765 24.093C82.7335 23.8942 82.3362 23.6037 82.0099 23.24C81.6848 22.8766 81.438 22.448 81.2857 21.9817C81.1333 21.5155 81.0787 21.022 81.1253 20.5331ZM86.5501 20.5331C86.5501 18.9227 85.8368 17.9811 84.5843 17.9811C83.3274 17.9811 82.6193 18.9227 82.6193 20.5331C82.6193 22.1567 83.3274 23.0912 84.5843 23.0912C85.8368 23.0912 86.5501 22.1496 86.5501 20.5331ZM97.2265 24.2511H95.7264L94.2116 18.7792H94.0974L92.5886 24.2511H91.1023L89.082 16.8212H90.5492L91.8623 22.4911H91.9705L93.4776 16.8212H94.8652L96.3713 22.4911H96.4856L97.7927 16.8212H99.2391L97.2265 24.2511ZM100.938 16.8212H102.33V18.0013H102.438C102.622 17.5765 102.931 17.2206 103.324 16.9833C103.716 16.746 104.171 16.6392 104.626 16.6778C104.982 16.6508 105.34 16.7054 105.673 16.8375C106.006 16.9697 106.305 17.1762 106.549 17.4416C106.792 17.7067 106.974 18.0241 107.08 18.3702C107.186 18.7164 107.214 19.0823 107.162 19.441V24.2511H105.716V19.8097C105.716 18.6156 105.204 18.0216 104.134 18.0216C103.77 18.0046 103.41 18.1085 103.108 18.3175C102.807 18.5265 102.58 18.8294 102.463 19.1805C102.385 19.4134 102.359 19.6605 102.385 19.9048V24.252H100.938V16.8212ZM109.466 13.9216H110.913V24.2511H109.466V13.9216ZM112.924 20.5331C112.877 20.0446 112.932 19.5516 113.085 19.0861C113.238 18.6205 113.485 18.1928 113.811 17.8306C114.136 17.4671 114.533 17.1768 114.976 16.9783C115.418 16.7797 115.896 16.6774 116.38 16.6778C116.863 16.6779 117.342 16.7805 117.784 16.979C118.226 17.1775 118.623 17.4675 118.949 17.8306C119.274 18.193 119.522 18.6208 119.674 19.0863C119.827 19.5517 119.882 20.0446 119.836 20.5331C119.907 21.2702 119.746 22.0111 119.378 22.6503C119.01 23.2894 118.453 23.7942 117.787 24.0927C117.119 24.392 116.376 24.4706 115.662 24.3174C114.948 24.1643 114.3 23.7871 113.808 23.2391C113.483 22.8758 113.237 22.4473 113.084 21.9813C112.932 21.5152 112.877 21.0219 112.924 20.5331ZM118.348 20.5331C118.348 18.9227 117.634 17.9811 116.382 17.9811C115.125 17.9811 114.418 18.9227 114.418 20.5331C114.418 22.1567 115.125 23.0912 116.382 23.0912C117.634 23.0912 118.348 22.1496 118.348 20.5331ZM121.36 22.1496C121.36 20.812 122.341 20.0412 124.086 19.932L126.07 19.8159V19.1744C126.07 18.3903 125.559 17.9468 124.57 17.9468C123.763 17.9468 123.204 18.2477 123.043 18.7731H121.642C121.79 17.4971 122.974 16.6787 124.637 16.6787C126.474 16.6787 127.511 17.6053 127.511 19.1744V24.252H126.118V23.2074H126.004C125.772 23.5827 125.445 23.8884 125.058 24.0933C124.672 24.2982 124.238 24.3949 123.803 24.3734C123.339 24.4219 122.873 24.3211 122.469 24.0853C122.066 23.8495 121.745 23.4907 121.553 23.0596C121.426 22.7734 121.361 22.4633 121.36 22.1496ZM126.07 21.5152V20.8939L124.28 21.01C123.271 21.0787 122.814 21.4263 122.814 22.0819C122.814 22.7507 123.386 23.1396 124.173 23.1396C124.403 23.1631 124.636 23.1393 124.857 23.0698C125.079 23.0003 125.284 22.8864 125.461 22.7348C125.638 22.5837 125.784 22.3978 125.888 22.1882C125.993 21.9786 126.055 21.7497 126.07 21.5152ZM129.412 20.5331C129.412 18.1852 130.603 16.698 132.454 16.698C132.912 16.677 133.366 16.7883 133.764 17.019C134.161 17.2496 134.487 17.5903 134.702 18.0013H134.81V13.9216H136.256V24.2528H134.87V23.078H134.756C134.525 23.4868 134.188 23.8236 133.783 24.052C133.377 24.2805 132.918 24.3919 132.454 24.3743C130.59 24.3743 129.412 22.8871 129.412 20.534V20.5331ZM130.906 20.5331C130.906 22.1083 131.639 23.0578 132.865 23.0578C134.083 23.0578 134.837 22.0951 134.837 20.5392C134.837 18.9904 134.076 18.0154 132.865 18.0154C131.647 18.0154 130.906 18.9702 130.906 20.5331ZM142.24 20.5331C142.194 20.0446 142.249 19.5516 142.402 19.0861C142.554 18.6205 142.802 18.1928 143.127 17.8306C143.453 17.4671 143.85 17.1768 144.292 16.9783C144.735 16.7797 145.213 16.6774 145.697 16.6778C146.18 16.6781 146.658 16.7808 147.1 16.9792C147.543 17.1777 147.94 17.4677 148.266 17.8306C148.59 18.1934 148.837 18.621 148.99 19.0862C149.142 19.5514 149.198 20.0439 149.153 20.5322C149.224 21.2697 149.064 22.0111 148.696 22.6505C148.327 23.29 147.77 23.7947 147.102 24.0927C146.66 24.2912 146.181 24.3937 145.697 24.3936C145.214 24.3935 144.735 24.2907 144.293 24.092C143.85 23.8932 143.453 23.6028 143.127 23.2392C142.802 22.8757 142.554 22.447 142.4 21.9807C142.248 21.5148 142.193 21.0217 142.24 20.5331ZM147.665 20.5331C147.665 18.9227 146.951 17.9811 145.699 17.9811C144.441 17.9811 143.734 18.9227 143.734 20.5331C143.734 22.1567 144.441 23.0912 145.699 23.0912C146.951 23.0912 147.665 22.1496 147.665 20.5331ZM151.093 16.8212H152.486V18.0013H152.594C152.778 17.5771 153.087 17.2218 153.479 16.9846C153.871 16.7474 154.326 16.6402 154.78 16.6778C155.317 16.637 155.852 16.7821 156.298 17.0895C156.744 17.3969 157.074 17.8485 157.235 18.3709C157.342 18.7168 157.369 19.0828 157.317 19.441V24.2511H155.871V19.8097C155.871 18.6156 155.359 18.0216 154.289 18.0216C154.047 18.0104 153.806 18.0523 153.581 18.1445C153.357 18.2367 153.154 18.3769 152.988 18.5557C152.821 18.7342 152.695 18.9472 152.618 19.1802C152.54 19.4131 152.513 19.6603 152.539 19.9048V24.252H151.093V16.8212ZM165.49 14.9715V16.8547H167.078V18.0902H165.49V21.912C165.49 22.69 165.806 23.0305 166.526 23.0305C166.71 23.0305 166.895 23.0191 167.078 22.9971V24.2185C166.818 24.2652 166.555 24.2907 166.291 24.2933C164.682 24.2933 164.042 23.7196 164.042 22.2869V18.0911H162.878V16.8564H164.042V14.9732H165.49V14.9715ZM169.053 13.9216H170.487V18.0154H170.602C170.795 17.5874 171.113 17.2301 171.513 16.9919C171.912 16.7538 172.374 16.6463 172.836 16.684C173.191 16.6644 173.545 16.7245 173.874 16.8598C174.204 16.9952 174.5 17.2025 174.741 17.4672C174.982 17.7315 175.163 18.0467 175.27 18.3902C175.377 18.7337 175.408 19.0971 175.36 19.4542V24.2511H173.913V19.8159C173.913 18.6296 173.368 18.0286 172.345 18.0286C171.971 17.9977 171.597 18.0924 171.281 18.2983C170.965 18.5041 170.724 18.8097 170.595 19.1682C170.51 19.4058 170.478 19.6601 170.5 19.9118V24.2511H169.053V13.9216ZM183.794 22.2456C183.597 22.9247 183.171 23.5119 182.592 23.9044C182.01 24.2974 181.312 24.4709 180.618 24.3945C180.135 24.4073 179.656 24.3135 179.213 24.1197C178.769 23.9258 178.372 23.6365 178.05 23.2716C177.728 22.907 177.488 22.4755 177.347 22.0071C177.206 21.5387 177.167 21.0447 177.233 20.5595C177.169 20.0728 177.209 19.578 177.35 19.1084C177.491 18.6389 177.729 18.2055 178.049 17.8376C178.369 17.4689 178.764 17.1746 179.206 16.9745C179.649 16.7743 180.128 16.6732 180.612 16.6778C182.651 16.6778 183.881 18.0902 183.881 20.4231V20.9352H178.707V21.0171C178.685 21.29 178.719 21.5646 178.807 21.8232C178.896 22.0819 179.036 22.319 179.22 22.5193C179.404 22.7197 179.626 22.8789 179.874 22.9867C180.121 23.0946 180.388 23.1488 180.658 23.1458C181.003 23.1875 181.354 23.1243 181.664 22.9641C181.974 22.8039 182.231 22.5539 182.402 22.2456H183.794ZM178.706 19.8511H182.408C182.425 19.6015 182.391 19.351 182.308 19.1156C182.224 18.8802 182.094 18.6651 181.924 18.4839C181.754 18.3028 181.549 18.1597 181.322 18.0637C181.095 17.9677 180.85 17.921 180.604 17.9265C180.354 17.9234 180.106 17.971 179.874 18.0665C179.643 18.162 179.432 18.3035 179.255 18.4827C179.078 18.6622 178.939 18.8758 178.845 19.1107C178.751 19.3457 178.704 19.5974 178.707 19.8511H178.706Z" fill="white"/>
</g>
<defs>
<clipPath id="clip0_87_26">
<rect width="219" height="66" fill="white" transform="translate(0.951355)"/>
</clipPath>
</defs>
</svg>
