<svg width="1206" height="1506" viewBox="0 0 1206 1506" fill="none" xmlns="http://www.w3.org/2000/svg">
<path d="M0 790.607C0 1271.98 628.298 619.545 967.5 1455C1739.38 1644.35 1839 1271.98 1839 790.607C1839 309.232 1475.33 0.5 967.5 0.5C459.674 0.5 0 309.232 0 790.607Z" fill="#EE7A5C"/>
<path d="M1171.05 333.443C1165.37 334.484 1159.93 330.726 1158.88 325.049C1157.84 319.372 1162.5 313.762 1167.28 312.885C1172.96 311.844 1178.4 315.602 1179.44 321.279C1180.48 326.956 1176.73 332.402 1171.05 333.443Z" fill="#276850"/>
<path d="M1171.05 301.443C1165.37 302.484 1159.93 298.726 1158.88 293.049C1157.84 287.372 1162.5 281.762 1167.28 280.885C1172.96 279.844 1178.4 283.602 1179.44 289.279C1180.48 294.956 1176.73 300.402 1171.05 301.443Z" fill="#276850"/>
<path d="M1203.05 301.443C1197.37 302.484 1191.93 298.726 1190.88 293.049C1189.84 287.372 1194.5 281.762 1199.28 280.885C1204.96 279.844 1210.4 283.602 1211.44 289.279C1212.48 294.956 1208.73 300.402 1203.05 301.443Z" fill="#276850"/>
<path d="M76.8291 995.185C54.2699 999.322 32.6281 984.388 28.491 961.829C24.3538 939.27 42.8563 916.974 61.8471 913.491C84.4063 909.354 106.048 924.288 110.185 946.847C114.322 969.406 99.3883 991.048 76.8291 995.185Z" fill="#276850"/>
<path d="M203.992 995.185C181.432 999.322 159.791 984.388 155.653 961.829C151.516 939.27 170.019 916.974 189.01 913.491C211.569 909.354 233.211 924.288 237.348 946.847C241.485 969.406 226.551 991.048 203.992 995.185Z" fill="#276850"/>
</svg>
