<svg width="25" height="24" viewBox="0 0 25 24" fill="none" xmlns="http://www.w3.org/2000/svg">
<path d="M21.9514 4.5H3.95135C3.55353 4.5 3.172 4.65804 2.89069 4.93934C2.60939 5.22064 2.45135 5.60218 2.45135 6V18C2.45135 18.3978 2.60939 18.7794 2.89069 19.0607C3.172 19.342 3.55353 19.5 3.95135 19.5H21.9514C22.3492 19.5 22.7307 19.342 23.012 19.0607C23.2933 18.7794 23.4514 18.3978 23.4514 18V6C23.4514 5.60218 23.2933 5.22064 23.012 4.93934C22.7307 4.65804 22.3492 4.5 21.9514 4.5ZM20.3014 6L12.9514 11.085L5.60135 6H20.3014ZM3.95135 18V6.6825L12.5239 12.615C12.6494 12.7021 12.7986 12.7488 12.9514 12.7488C13.1042 12.7488 13.2533 12.7021 13.3789 12.615L21.9514 6.6825V18H3.95135Z" fill="black"/>
</svg>
