<svg width="221" height="66" viewBox="0 0 221 66" fill="none" xmlns="http://www.w3.org/2000/svg">
<g clip-path="url(#clip0_87_30)">
<path d="M212.804 0H9.09915C6.93822 0 4.8658 0.860685 3.33779 2.39271C1.80978 3.92474 0.951355 6.00262 0.951355 8.16924L0.951355 57.1873C0.951355 59.3539 1.80978 61.4318 3.33779 62.9638C4.8658 64.4958 6.93822 65.3565 9.09915 65.3565H212.804C214.964 65.3565 217.037 64.4958 218.565 62.9638C220.093 61.4318 220.951 59.3539 220.951 57.1873V8.16924C220.951 7.09644 220.741 6.03414 220.331 5.04301C219.922 4.05187 219.322 3.1513 218.565 2.39271C217.808 1.63413 216.91 1.03239 215.922 0.621846C214.933 0.211304 213.874 0 212.804 0V0Z" fill="black"/>
<path d="M212.804 1.30697C214.619 1.30697 216.36 2.02996 217.643 3.31688C218.927 4.60381 219.648 6.34925 219.648 8.16924V57.1873C219.648 59.0072 218.926 60.7525 217.643 62.0394C216.359 63.3262 214.619 64.0493 212.804 64.0495H9.09915C7.28394 64.0495 5.54308 63.3265 4.25953 62.0396C2.97599 60.7527 2.2549 59.0072 2.2549 57.1873V8.16924C2.2549 6.34925 2.97599 4.60381 4.25953 3.31688C5.54308 2.02996 7.28394 1.30697 9.09915 1.30697H212.804ZM212.804 0H9.09915C6.93822 0 4.8658 0.860685 3.33779 2.39271C1.80978 3.92474 0.951355 6.00262 0.951355 8.16924L0.951355 57.1873C0.951355 59.3539 1.80978 61.4318 3.33779 62.9638C4.8658 64.4958 6.93822 65.3565 9.09915 65.3565H212.804C214.964 65.356 217.037 64.4952 218.564 62.9633C220.092 61.4313 220.951 59.3537 220.951 57.1873V8.16924C220.951 6.00269 220.093 3.92495 218.565 2.39297C217.037 0.860989 214.964 0.000230275 212.804 0V0Z" fill="#A6A6A6"/>
<path d="M78.2285 16.731C78.2554 17.3301 78.1611 17.9285 77.9512 18.4901C77.7413 19.0517 77.4202 19.5649 77.0073 19.9988C76.5443 20.4782 75.9856 20.8542 75.3676 21.102C74.7497 21.3498 74.0865 21.464 73.4214 21.4369C72.7528 21.4519 72.0882 21.3291 71.4687 21.0762C70.8492 20.8233 70.2881 20.4457 69.82 19.9667C68.8703 18.9928 68.3386 17.6848 68.3386 16.3228C68.3386 14.9607 68.8703 13.6528 69.82 12.6789C70.546 11.9677 71.4655 11.4875 72.4628 11.2985C73.4601 11.1096 74.4909 11.2203 75.4257 11.6168C76.0134 11.8588 76.5377 12.2332 76.9579 12.711L76.0944 13.5777C75.7708 13.1866 75.3607 12.8766 74.8967 12.6724C74.4327 12.4681 73.9276 12.3752 73.4214 12.401C72.7825 12.4052 72.1544 12.5663 71.5919 12.8701C71.0294 13.174 70.5497 13.6114 70.1948 14.144C69.8399 14.6767 69.6205 15.2884 69.5558 15.9258C69.4911 16.5631 69.5831 17.2066 69.8238 17.8C70.0645 18.3934 70.4465 18.9187 70.9364 19.3299C71.4263 19.7411 72.0093 20.0257 72.6342 20.1589C73.2592 20.292 73.9072 20.2696 74.5216 20.0937C75.1359 19.9177 75.6979 19.5935 76.1585 19.1495C76.6574 18.6024 76.9458 17.8964 76.9744 17.1565H73.4214V15.9789H78.1636C78.2008 16.2281 78.2225 16.4791 78.2285 16.7301V16.731ZM85.6921 12.6468H81.2921V15.7505H85.3006V16.9272H81.2921V20.0318H85.6921V21.2407H80.0206V11.4371H85.6921V12.6468ZM91.037 21.2415H89.782V12.6468H87.045V11.4371H93.8399V12.6468H91.037V21.2407V21.2415ZM98.6314 21.2415V11.4371H99.8864V21.2415H98.6314ZM105.459 21.2415H104.205V12.6468H101.467V11.4371H108.181V12.6468H105.459V21.2407V21.2415ZM120.909 19.9667C119.958 20.9199 118.668 21.4559 117.324 21.4569C115.979 21.4563 114.689 20.9203 113.738 19.9667C112.817 18.9846 112.304 17.6873 112.304 16.3393C112.304 14.9913 112.817 13.694 113.738 12.7119C114.198 12.2264 114.756 11.8432 115.373 11.5871C115.991 11.331 116.655 11.2077 117.324 11.2252C117.991 11.2143 118.653 11.3406 119.27 11.5963C119.886 11.852 120.444 12.2317 120.909 12.7119C121.377 13.1901 121.745 13.7574 121.991 14.3803C122.238 15.0033 122.357 15.6693 122.343 16.3393C122.364 17.0101 122.247 17.6781 122.001 18.302C121.754 18.9259 121.382 19.4924 120.909 19.9667ZM114.667 19.1504C115.19 19.6819 115.859 20.0444 116.589 20.1911C117.319 20.3378 118.076 20.2621 118.763 19.9736C119.219 19.7825 119.632 19.5024 119.979 19.1495C120.682 18.3834 121.073 17.3804 121.073 16.3393C121.073 15.2982 120.682 14.2952 119.979 13.5291C119.457 12.9972 118.788 12.6344 118.058 12.4875C117.328 12.3406 116.571 12.4163 115.884 12.705C115.428 12.8963 115.014 13.1768 114.667 13.53C113.964 14.296 113.574 15.2989 113.574 16.3397C113.574 17.3806 113.964 18.3835 114.667 19.1495V19.1504ZM124.118 21.2415V11.4371H125.634L130.393 19.0679V11.4371H131.648V21.2415H130.343L125.374 13.2512V21.2407H124.118V21.2415Z" fill="white" stroke="white" stroke-width="0.2" stroke-miterlimit="10"/>
<path d="M111.994 35.5375C110.621 35.5406 109.28 35.9519 108.139 36.7195C106.999 37.487 106.112 38.5762 105.589 39.8495C105.067 41.1227 104.932 42.5227 105.203 43.8725C105.474 45.2223 106.138 46.4611 107.112 47.4325C108.085 48.4038 109.324 49.0639 110.671 49.3294C112.019 49.5949 113.414 49.4538 114.682 48.9239C115.949 48.394 117.032 47.4992 117.792 46.3526C118.552 45.206 118.956 43.8591 118.953 42.4823C118.966 41.5639 118.795 40.6523 118.45 39.8016C118.104 38.9509 117.592 38.1786 116.942 37.5307C116.293 36.8828 115.52 36.3725 114.67 36.0303C113.82 35.688 112.91 35.5207 111.994 35.5384V35.5375ZM111.994 46.6967C111.152 46.756 110.312 46.5599 109.583 46.134C108.854 45.7082 108.269 45.0722 107.906 44.3087C107.542 43.5453 107.415 42.6898 107.543 41.8534C107.671 41.017 108.046 40.2385 108.621 39.619C109.196 38.9996 109.943 38.5678 110.766 38.38C111.589 38.1921 112.449 38.2568 113.235 38.5656C114.02 38.8745 114.695 39.4132 115.171 40.1117C115.648 40.8102 115.903 41.6362 115.905 42.4823C115.932 43.0182 115.851 43.5542 115.667 44.0582C115.484 44.5623 115.201 45.0243 114.836 45.4167C114.472 45.8098 114.033 46.1257 113.545 46.3457C113.056 46.5657 112.529 46.6854 111.994 46.6976V46.6967ZM96.8055 35.5375C95.779 35.5397 94.7657 35.7701 93.8387 36.2123C92.9117 36.6544 92.0941 37.2973 91.4447 38.0944C90.7954 38.8916 90.3305 39.8233 90.0836 40.8223C89.8366 41.8213 89.8138 42.8628 90.0167 43.8718C90.2874 45.2215 90.9513 46.4604 91.9245 47.4317C92.8977 48.403 94.1364 49.0629 95.4838 49.328C96.491 49.5263 97.5295 49.4981 98.5245 49.2457C99.5195 48.9932 100.446 48.5227 101.238 47.868C102.03 47.2133 102.667 46.3907 103.104 45.4594C103.541 44.5282 103.766 43.5114 103.764 42.4823C103.778 41.5638 103.607 40.6519 103.262 39.8011C102.917 38.9503 102.404 38.1781 101.754 37.5305C101.104 36.8828 100.332 36.3725 99.4816 36.0301C98.6315 35.6878 97.7215 35.5202 96.8055 35.5375ZM96.8055 46.6967C95.964 46.7559 95.1242 46.5597 94.3954 46.1338C93.6666 45.7079 93.0825 45.0719 92.7191 44.3086C92.4476 43.738 92.3075 43.1136 92.3092 42.4815C92.3109 41.8493 92.4543 41.2256 92.7288 40.6565C93.0033 40.0875 93.4019 39.5875 93.8952 39.1938C94.3884 38.8 94.9636 38.5224 95.5782 38.3816C96.1931 38.2414 96.8315 38.2416 97.4463 38.3822C98.0611 38.5227 98.6365 38.8001 99.1299 39.1938C99.6234 39.5874 100.022 40.0873 100.297 40.6564C100.572 41.2255 100.715 41.8492 100.717 42.4814C100.756 43.2888 100.552 44.0894 100.131 44.7787C99.7096 45.468 99.0912 46.0141 98.3559 46.3459C97.8678 46.5658 97.3406 46.6854 96.8055 46.6976V46.6967ZM78.75 37.679V40.6204H85.79C85.6793 42.0054 85.1048 43.3122 84.1599 44.3285C83.4538 45.05 82.6044 45.6149 81.6669 45.9865C80.7293 46.3581 79.7243 46.5281 78.717 46.4857C76.6425 46.4857 74.6529 45.6594 73.186 44.1886C71.719 42.7178 70.8949 40.723 70.8949 38.643C70.8949 36.563 71.719 34.5682 73.186 33.0974C74.6529 31.6266 76.6425 30.8003 78.717 30.8003C80.7058 30.7707 82.6262 31.5279 84.062 32.9079L86.1321 30.8324C85.1608 29.8693 84.0076 29.1102 82.74 28.5996C81.4724 28.089 80.1159 27.8372 78.75 27.8589C77.3029 27.8053 75.8599 28.0447 74.5073 28.5629C73.1546 29.0811 71.9201 29.8674 70.8774 30.8748C69.8347 31.8823 69.0054 33.0902 68.4389 34.4263C67.8724 35.7625 67.5804 37.1994 67.5804 38.6512C67.5804 40.1031 67.8724 41.54 68.4389 42.8762C69.0054 44.2123 69.8347 45.4202 70.8774 46.4276C71.9201 47.4351 73.1546 48.2214 74.5073 48.7396C75.8599 49.2578 77.3029 49.4972 78.75 49.4436C80.1439 49.4993 81.5339 49.2588 82.8285 48.7378C84.1232 48.2168 85.2933 47.4271 86.262 46.4206C87.9736 44.5358 88.8854 42.0565 88.8041 39.5088C88.81 38.8957 88.761 38.2834 88.6578 37.679H78.7491H78.75ZM152.589 39.9665C152.163 38.713 151.368 37.6186 150.309 36.8279C149.25 36.0372 147.976 35.5875 146.656 35.5384C145.765 35.5366 144.883 35.7182 144.064 36.072C143.245 36.4257 142.508 36.944 141.897 37.5949C141.286 38.2458 140.814 39.0155 140.512 39.8563C140.209 40.697 140.082 41.5911 140.138 42.4832C140.124 43.9746 140.592 45.4304 141.472 46.6333C142.351 47.8362 143.595 48.7218 145.018 49.1578C146.44 49.5936 147.965 49.5562 149.365 49.0511C150.765 48.546 151.964 47.6003 152.783 46.3554L150.421 44.7211C150.068 45.3097 149.569 45.7957 148.971 46.131C148.374 46.4663 147.7 46.6392 147.015 46.6325C146.309 46.6616 145.61 46.476 145.011 46.0998C144.412 45.7237 143.94 45.1746 143.658 44.5248L152.931 40.6855L152.589 39.9665ZM143.136 42.2869C143.087 41.5226 143.268 40.7611 143.655 40.1008C144.042 39.4406 144.618 38.9119 145.308 38.5831C145.766 38.3653 146.264 38.2413 146.771 38.2183C147.296 38.186 147.819 38.3098 148.274 38.5743C148.729 38.8388 149.096 39.2322 149.329 39.7051L143.136 42.2869ZM135.607 49.018H138.655V28.5936H135.607V49.0172V49.018ZM130.621 37.0911H130.506C130.051 36.5711 129.49 36.1558 128.86 35.8737C128.23 35.5916 127.546 35.4494 126.856 35.4568C125.079 35.5481 123.404 36.3204 122.178 37.6141C120.952 38.9079 120.269 40.6243 120.269 42.4089C120.269 44.1935 120.952 45.9099 122.178 47.2037C123.404 48.4974 125.079 49.2697 126.856 49.3611C127.547 49.3749 128.232 49.2356 128.863 48.9532C129.494 48.6709 130.055 48.2523 130.506 47.7276H130.621V48.7245C130.621 51.3879 129.203 52.8087 126.921 52.8087C126.159 52.7921 125.419 52.5488 124.796 52.1096C124.172 51.6705 123.692 51.0554 123.418 50.3424L120.778 51.4366C121.266 52.6656 122.115 53.7172 123.211 54.4523C124.308 55.1874 125.602 55.5715 126.921 55.5538C130.491 55.5538 133.44 53.4461 133.44 48.3155V35.9466H130.621V37.0903V37.0911ZM127.117 46.6985C126.051 46.6297 125.05 46.1566 124.319 45.3751C123.588 44.5936 123.182 43.5624 123.182 42.491C123.182 41.4196 123.588 40.3884 124.319 39.6069C125.05 38.8254 126.051 38.3522 127.117 38.2835C127.639 38.3059 128.151 38.4335 128.623 38.6585C129.095 38.8835 129.516 39.2014 129.863 39.5933C130.21 39.9851 130.474 40.4429 130.641 40.9394C130.808 41.4359 130.873 41.9609 130.833 42.4832C130.877 43.007 130.814 43.5344 130.649 44.0334C130.485 44.5325 130.221 44.993 129.874 45.3872C129.527 45.7816 129.104 46.1012 128.63 46.3266C128.156 46.552 127.641 46.6785 127.117 46.6985ZM166.863 28.5945H159.563V49.018H162.611V41.2734H166.863C167.951 41.3516 169.041 41.147 170.027 40.6796C171.012 40.2123 171.861 39.4978 172.491 38.6053C173.121 37.7128 173.511 36.6725 173.623 35.5849C173.735 34.4972 173.565 33.399 173.13 32.3964C172.607 31.1901 171.723 30.1764 170.6 29.4954C169.478 28.8144 168.172 28.4996 166.863 28.5945ZM166.863 38.3981H162.611V31.4368H166.929C167.619 31.4364 168.293 31.6413 168.867 32.0255C169.44 32.4097 169.887 32.9559 170.15 33.5949C170.326 34.019 170.417 34.4738 170.417 34.9331C170.417 35.3924 170.326 35.8472 170.15 36.2713C169.976 36.6958 169.719 37.0814 169.395 37.4062C169.071 37.7309 168.686 37.9883 168.263 38.1636C167.84 38.3392 167.387 38.4295 166.929 38.4294L166.863 38.3972V38.3981ZM185.67 35.4733C184.56 35.4047 183.455 35.6636 182.49 36.218C181.526 36.7724 180.744 37.5979 180.243 38.5926L182.932 39.7198C183.203 39.2283 183.611 38.8262 184.105 38.5623C184.6 38.2984 185.16 38.1841 185.718 38.2331C186.105 38.1877 186.497 38.22 186.872 38.3282C187.246 38.4364 187.595 38.6182 187.898 38.8631C188.202 39.1079 188.453 39.4109 188.639 39.7544C188.824 40.0979 188.939 40.4749 188.978 40.8635V41.0598C187.998 40.5434 186.907 40.2742 185.8 40.2756C182.899 40.2756 179.934 41.9091 179.934 44.8826C179.962 45.5148 180.117 46.1347 180.39 46.7056C180.662 47.2765 181.046 47.7867 181.519 48.206C181.991 48.6249 182.543 48.9443 183.142 49.1452C183.74 49.3461 184.372 49.4246 185.001 49.3758C185.766 49.4182 186.528 49.2559 187.21 48.9057C187.891 48.5555 188.468 48.0299 188.88 47.3828H188.978V49.0163H191.911V41.1571C191.911 37.5792 189.206 35.5037 185.735 35.5037L185.67 35.4715V35.4733ZM185.295 46.6655C184.301 46.6655 182.916 46.1592 182.916 44.9338C182.916 43.2995 184.643 42.7437 186.175 42.7437C187.143 42.7196 188.099 42.9565 188.945 43.4297C188.843 44.3173 188.423 45.1376 187.764 45.7387C187.105 46.3398 186.251 46.6808 185.36 46.6985L185.295 46.6655ZM202.601 35.9474L199.114 44.8027H199.016L195.398 35.9474H192.139L197.566 48.3311L194.47 55.2099H197.647L205.991 35.9466H202.601V35.9474ZM175.223 49.018H178.255V28.5936H175.223V49.0172V49.018Z" fill="white"/>
<path d="M17.9641 12.3193C17.4272 12.956 17.1533 13.7743 17.1984 14.6068V50.7504C17.1429 51.5843 17.4181 52.4064 17.9641 53.0379L18.0784 53.1681L38.2699 32.9244V32.4337L18.0784 12.2056L17.9641 12.3193Z" fill="url(#paint0_linear_87_30)"/>
<path d="M44.9514 39.6712L38.27 32.9236V32.4329L44.9514 25.6853L45.0986 25.7834L53.0992 30.3253C55.3815 31.6157 55.3815 33.7399 53.0992 35.0478L45.1307 39.5896L44.9514 39.6712Z" fill="url(#paint1_linear_87_30)"/>
<path d="M45.1471 39.574L38.2699 32.6787L17.965 53.0371C18.4255 53.4478 19.0148 53.6841 19.6308 53.7048C20.2469 53.7256 20.8507 53.5296 21.3377 53.1509L45.1471 39.574Z" fill="url(#paint2_linear_87_30)"/>
<path d="M45.1471 25.7835L21.3377 12.2213C20.8537 11.8375 20.2503 11.637 19.6335 11.6549C19.0167 11.6729 18.4259 11.9082 17.965 12.3195L38.2699 32.6787L45.1471 25.7835Z" fill="url(#paint3_linear_87_30)"/>
<path opacity="0.2" d="M44.9513 39.4263L21.3377 52.9059C20.8684 53.2613 20.2962 53.4536 19.7081 53.4536C19.1199 53.4536 18.5478 53.2613 18.0784 52.9059L17.965 53.0205L18.0784 53.1508C18.5478 53.5061 19.1199 53.6982 19.7081 53.6982C20.2962 53.6982 20.8683 53.5061 21.3377 53.1508L45.1471 39.5739L44.9513 39.4263Z" fill="black"/>
<path opacity="0.12" d="M17.9641 52.8086C17.4405 52.1606 17.1839 51.3363 17.2469 50.5047V50.7496C17.1916 51.5836 17.4671 52.4057 18.0135 53.037L18.1269 52.9224L17.9641 52.8086ZM53.0991 34.8019L44.9513 39.4262L45.0986 39.5739L53.0991 35.0312C53.5717 34.8311 53.9817 34.5068 54.2858 34.0926C54.5899 33.6784 54.7769 33.1896 54.8271 32.6777C54.7252 33.1428 54.5157 33.5773 54.2156 33.9463C53.9154 34.3152 53.533 34.6083 53.0991 34.8019Z" fill="black"/>
<path opacity="0.25" d="M21.3386 12.4505L53.1 30.5545C53.5337 30.7482 53.9159 31.0413 54.2159 31.4103C54.5159 31.7792 54.7252 32.2137 54.8271 32.6786C54.7768 32.1669 54.5899 31.6782 54.2859 31.2641C53.982 30.8499 53.5723 30.5256 53.1 30.3252L21.3386 12.2212C19.0728 10.9142 17.1984 11.9928 17.1984 14.6068V14.8525C17.2478 12.2386 19.0736 11.1591 21.3386 12.4505Z" fill="white"/>
</g>
<defs>
<linearGradient id="paint0_linear_87_30" x1="36.477" y1="14.2316" x2="9.06018" y2="41.5765" gradientUnits="userSpaceOnUse">
<stop stop-color="#00A0FF"/>
<stop offset="0.01" stop-color="#00A1FF"/>
<stop offset="0.26" stop-color="#00BEFF"/>
<stop offset="0.51" stop-color="#00D2FF"/>
<stop offset="0.76" stop-color="#00DFFF"/>
<stop offset="1" stop-color="#00E3FF"/>
</linearGradient>
<linearGradient id="paint1_linear_87_30" x1="56.0822" y1="32.6778" x2="16.6606" y2="32.6778" gradientUnits="userSpaceOnUse">
<stop stop-color="#FFE000"/>
<stop offset="0.41" stop-color="#FFBD00"/>
<stop offset="0.78" stop-color="#FFA500"/>
<stop offset="1" stop-color="#FF9C00"/>
</linearGradient>
<linearGradient id="paint2_linear_87_30" x1="41.4149" y1="36.4364" x2="4.22754" y2="73.5097" gradientUnits="userSpaceOnUse">
<stop stop-color="#FF3A44"/>
<stop offset="1" stop-color="#C31162"/>
</linearGradient>
<linearGradient id="paint3_linear_87_30" x1="12.8478" y1="0.294431" x2="29.4485" y2="16.8515" gradientUnits="userSpaceOnUse">
<stop stop-color="#32A071"/>
<stop offset="0.07" stop-color="#2DA771"/>
<stop offset="0.48" stop-color="#15CF74"/>
<stop offset="0.8" stop-color="#06E775"/>
<stop offset="1" stop-color="#00F076"/>
</linearGradient>
<clipPath id="clip0_87_30">
<rect width="220" height="66" fill="white" transform="translate(0.951355)"/>
</clipPath>
</defs>
</svg>
