<svg width="27" height="26" viewBox="0 0 27 26" fill="none" xmlns="http://www.w3.org/2000/svg">
<path d="M19.1563 8.96524C19.8024 8.96524 20.3263 8.44142 20.3263 7.79524C20.3263 7.14907 19.8024 6.62524 19.1563 6.62524C18.5101 6.62524 17.9863 7.14907 17.9863 7.79524C17.9863 8.44142 18.5101 8.96524 19.1563 8.96524Z" fill="black"/>
<path d="M13.9514 7.99341C12.9612 7.99341 11.9932 8.28704 11.1699 8.83718C10.3465 9.38731 9.70481 10.1692 9.32587 11.0841C8.94693 11.9989 8.84778 13.0056 9.04097 13.9768C9.23415 14.948 9.71098 15.8401 10.4112 16.5402C11.1114 17.2404 12.0035 17.7173 12.9746 17.9105C13.9458 18.1036 14.9525 18.0045 15.8673 17.6256C16.7822 17.2466 17.5641 16.6049 18.1142 15.7816C18.6644 14.9582 18.958 13.9902 18.958 13C18.958 11.6722 18.4305 10.3987 17.4916 9.45981C16.5527 8.52089 15.2792 7.99341 13.9514 7.99341ZM13.9514 16.25C13.3086 16.25 12.6802 16.0594 12.1458 15.7023C11.6113 15.3452 11.1948 14.8376 10.9488 14.2438C10.7028 13.6499 10.6384 12.9964 10.7638 12.366C10.8892 11.7356 11.1988 11.1565 11.6533 10.7019C12.1078 10.2474 12.6869 9.93788 13.3173 9.81248C13.9478 9.68708 14.6013 9.75144 15.1951 9.99742C15.789 10.2434 16.2966 10.66 16.6537 11.1944C17.0108 11.7289 17.2014 12.3572 17.2014 13C17.2014 13.862 16.859 14.6886 16.2495 15.2981C15.64 15.9076 14.8133 16.25 13.9514 16.25Z" fill="black"/>
<path d="M13.9514 5.00663C16.5546 5.00663 16.8634 5.01637 17.8912 5.0635C18.5094 5.07084 19.1217 5.18434 19.7014 5.39906C20.122 5.56131 20.504 5.80982 20.8228 6.12859C21.1415 6.44736 21.39 6.82934 21.5523 7.24994C21.767 7.82968 21.8805 8.442 21.8879 9.06019C21.935 10.088 21.9447 10.3967 21.9447 13.0008C21.9447 15.6049 21.935 15.912 21.8879 16.9398C21.8805 17.558 21.767 18.1703 21.5523 18.7501C21.39 19.1707 21.1415 19.5526 20.8228 19.8714C20.504 20.1902 20.122 20.4387 19.7014 20.6009C19.1217 20.8157 18.5094 20.9292 17.8912 20.9365C16.8634 20.9836 16.5546 20.9934 13.9514 20.9934C11.3481 20.9934 11.0394 20.9836 10.0115 20.9365C9.39336 20.9292 8.78103 20.8157 8.20129 20.6009C7.78069 20.4387 7.39872 20.1902 7.07994 19.8714C6.76117 19.5526 6.51267 19.1707 6.35042 18.7501C6.1357 18.1703 6.02219 17.558 6.01485 16.9398C5.96773 15.912 5.95798 15.6032 5.95798 13C5.95798 10.3967 5.96773 10.088 6.01485 9.06019C6.02219 8.442 6.1357 7.82968 6.35042 7.24994C6.51267 6.82934 6.76117 6.44736 7.07994 6.12859C7.39872 5.80982 7.78069 5.56131 8.20129 5.39906C8.78103 5.18434 9.39336 5.07084 10.0115 5.0635C11.0394 5.01637 11.3481 5.00663 13.9514 5.00663ZM13.9514 3.25C11.3034 3.25 10.9711 3.26138 9.93111 3.3085C9.12248 3.32483 8.32248 3.47813 7.56511 3.76188C6.91732 4.01237 6.32902 4.39544 5.83791 4.88655C5.3468 5.37766 4.96372 5.96596 4.71323 6.61375C4.42939 7.37138 4.27609 8.17167 4.25986 8.98056C4.21273 10.0206 4.20135 10.3513 4.20135 13C4.20135 15.6488 4.21273 15.9803 4.25986 17.0203C4.27618 17.8289 4.42948 18.6289 4.71323 19.3862C4.96372 20.034 5.3468 20.6223 5.83791 21.1134C6.32902 21.6046 6.91732 21.9876 7.56511 22.2381C8.32274 22.522 9.12302 22.6753 9.93192 22.6915C10.9719 22.7386 11.3034 22.75 13.9514 22.75C16.5993 22.75 16.9316 22.7386 17.9716 22.6915C18.7805 22.6753 19.5808 22.522 20.3384 22.2381C20.9862 21.9876 21.5745 21.6046 22.0656 21.1134C22.5567 20.6223 22.9398 20.034 23.1903 19.3862C23.4739 18.6286 23.6269 17.8283 23.6429 17.0194C23.69 15.9794 23.7014 15.6488 23.7014 13C23.7014 10.3513 23.69 10.0198 23.6429 8.97975C23.6265 8.17113 23.4732 7.37113 23.1895 6.61375C22.939 5.96596 22.5559 5.37766 22.0648 4.88655C21.5737 4.39544 20.9854 4.01237 20.3376 3.76188C19.5799 3.47831 18.7796 3.32529 17.9708 3.30931C16.9308 3.26056 16.6001 3.25 13.9514 3.25Z" fill="black"/>
</svg>
