<svg width="50" height="50" viewBox="0 0 50 50" fill="none" xmlns="http://www.w3.org/2000/svg">
<circle cx="25" cy="25" r="25" fill="white"/>
<path d="M14.4421 13.3801C14.1349 13.7434 13.9782 14.2105 14.004 14.6856V35.3133C13.9723 35.7892 14.1297 36.2584 14.4421 36.6188L14.5076 36.6931L26.0615 25.1397V24.8597L14.5076 13.3152L14.4421 13.3801Z" fill="url(#paint0_linear_0_70)"/>
<path d="M29.8847 28.99L26.0615 25.1391V24.859L29.8847 21.0081L29.9689 21.0641L34.547 23.6562C35.853 24.3927 35.853 25.6049 34.547 26.3513L29.9873 28.9434L29.8847 28.99Z" fill="url(#paint1_linear_0_70)"/>
<path d="M29.9967 28.9345L26.0615 24.9993L14.4426 36.6181C14.7061 36.8525 15.0434 36.9873 15.3959 36.9992C15.7484 37.0111 16.0939 36.8992 16.3726 36.683L29.9967 28.9345Z" fill="url(#paint2_linear_0_70)"/>
<path d="M29.9967 21.064L16.3726 13.3239C16.0956 13.1048 15.7504 12.9904 15.3974 13.0006C15.0445 13.0109 14.7064 13.1452 14.4426 13.3799L26.0615 24.9992L29.9967 21.064Z" fill="url(#paint3_linear_0_70)"/>
<path opacity="0.2" d="M29.8847 28.8501L16.3726 36.5431C16.104 36.746 15.7766 36.8557 15.4401 36.8557C15.1035 36.8557 14.7761 36.746 14.5076 36.5431L14.4426 36.6086L14.5076 36.6829C14.7762 36.8856 15.1035 36.9953 15.4401 36.9953C15.7766 36.9953 16.104 36.8856 16.3726 36.6829L29.9967 28.9344L29.8847 28.8501Z" fill="black"/>
<path opacity="0.12" d="M14.4422 36.4878C14.1426 36.1179 13.9957 35.6475 14.0318 35.1729V35.3127C14.0002 35.7886 14.1578 36.2578 14.4704 36.6181L14.5353 36.5527L14.4422 36.4878ZM34.547 26.2111L29.8847 28.8503L29.969 28.9345L34.547 26.3419C34.8175 26.2277 35.052 26.0427 35.2261 25.8063C35.4001 25.5699 35.5071 25.2909 35.5358 24.9988C35.4775 25.2642 35.3576 25.5122 35.1859 25.7228C35.0141 25.9333 34.7953 26.1006 34.547 26.2111Z" fill="black"/>
<path opacity="0.25" d="M16.3733 13.455L34.5477 23.7872C34.7959 23.8977 35.0146 24.065 35.1862 24.2756C35.3579 24.4862 35.4777 24.7341 35.536 24.9995C35.5072 24.7074 35.4002 24.4285 35.2263 24.1922C35.0524 23.9558 34.818 23.7707 34.5477 23.6563L16.3733 13.3241C15.0767 12.5782 14.0042 13.1938 14.0042 14.6856V14.8258C14.0325 13.334 15.0772 12.718 16.3733 13.455Z" fill="white"/>
<defs>
<linearGradient id="paint0_linear_0_70" x1="25.0356" y1="14.4715" x2="9.3883" y2="30.1187" gradientUnits="userSpaceOnUse">
<stop stop-color="#00A0FF"/>
<stop offset="0.01" stop-color="#00A1FF"/>
<stop offset="0.26" stop-color="#00BEFF"/>
<stop offset="0.51" stop-color="#00D2FF"/>
<stop offset="0.76" stop-color="#00DFFF"/>
<stop offset="1" stop-color="#00E3FF"/>
</linearGradient>
<linearGradient id="paint1_linear_0_70" x1="36.2539" y1="24.9988" x2="13.6962" y2="24.9988" gradientUnits="userSpaceOnUse">
<stop stop-color="#FFE000"/>
<stop offset="0.41" stop-color="#FFBD00"/>
<stop offset="0.78" stop-color="#FFA500"/>
<stop offset="1" stop-color="#FF9C00"/>
</linearGradient>
<linearGradient id="paint2_linear_0_70" x1="27.8611" y1="27.1438" x2="6.63759" y2="48.3579" gradientUnits="userSpaceOnUse">
<stop stop-color="#FF3A44"/>
<stop offset="1" stop-color="#C31162"/>
</linearGradient>
<linearGradient id="paint3_linear_0_70" x1="11.5145" y1="6.51703" x2="20.9888" y2="15.9913" gradientUnits="userSpaceOnUse">
<stop stop-color="#32A071"/>
<stop offset="0.07" stop-color="#2DA771"/>
<stop offset="0.48" stop-color="#15CF74"/>
<stop offset="0.8" stop-color="#06E775"/>
<stop offset="1" stop-color="#00F076"/>
</linearGradient>
</defs>
</svg>
